<svg width="48" height="48" viewBox="0 0 48 48" fill="none" xmlns="http://www.w3.org/2000/svg">
<path d="M30.5 40.5C30.5 41.6457 29.4516 43.1445 26.6771 44.4451C24.0221 45.6896 20.2488 46.5 16 46.5C11.7512 46.5 7.97793 45.6896 5.32294 44.4451C2.54839 43.1445 1.5 41.6457 1.5 40.5C1.5 39.3543 2.54839 37.8555 5.32294 36.5549C7.97793 35.3104 11.7512 34.5 16 34.5C20.2488 34.5 24.0221 35.3104 26.6771 36.5549C29.4516 37.8555 30.5 39.3543 30.5 40.5Z" stroke="#152C5B" stroke-width="3"/>
<path d="M28.5 12.9792C28.5 16.2958 27.0045 23.0974 24.5139 29.1031C23.2747 32.0913 21.8317 34.7755 20.284 36.6854C18.6969 38.644 17.2404 39.5 16 39.5C14.7596 39.5 13.3031 38.644 11.716 36.6854C10.1683 34.7755 8.72532 32.0913 7.48608 29.1031C4.99549 23.0974 3.5 16.2958 3.5 12.9792C3.5 6.74433 8.98748 1.5 16 1.5C23.0125 1.5 28.5 6.74433 28.5 12.9792Z" fill="white" stroke="#152C5B" stroke-width="3"/>
<circle cx="16" cy="14" r="4.5" stroke="#FF498B" stroke-width="3"/>
</svg>
